<?xml version="1.0" encoding="utf-8"?>
<!-- Generator: Adobe Illustrator 15.0.0, SVG Export Plug-In . SVG Version: 6.00 Build 0)  -->
<!DOCTYPE svg PUBLIC "-//W3C//DTD SVG 1.1//EN" "http://www.w3.org/Graphics/SVG/1.1/DTD/svg11.dtd">
<svg version="1.1" id="Layer_1" xmlns="http://www.w3.org/2000/svg" xmlns:xlink="http://www.w3.org/1999/xlink" x="0px" y="0px"
	 width="21px" height="22px" viewBox="0 0 21 22" enable-background="new 0 0 21 22" xml:space="preserve">
<g id="calendar_1_">
	<path d="M19.251,2.025h-2.845V0.648c0-0.381-0.294-0.689-0.656-0.689c-0.363,0-0.656,0.308-0.656,0.689v1.377h-3.938V0.648
		c0-0.381-0.294-0.689-0.655-0.689c-0.363,0-0.657,0.308-0.657,0.689v1.377H5.906V0.648c0-0.381-0.294-0.689-0.656-0.689
		c-0.363,0-0.657,0.308-0.657,0.689v1.377H1.75C0.784,2.025,0,2.847,0,3.862v16.302C0,21.179,0.784,22,1.75,22h17.501
		C20.217,22,21,21.179,21,20.164V3.862C21,2.847,20.217,2.025,19.251,2.025z M19.688,20.164c0,0.253-0.195,0.459-0.437,0.459H1.75
		c-0.241,0-0.438-0.206-0.438-0.459V3.862c0-0.253,0.196-0.459,0.438-0.459h2.844v1.378c0,0.381,0.294,0.689,0.657,0.689
		c0.362,0,0.656-0.308,0.656-0.689V3.403h3.938v1.378c0,0.381,0.294,0.689,0.657,0.689c0.361,0,0.655-0.308,0.655-0.689V3.403h3.938
		v1.378c0,0.381,0.293,0.689,0.656,0.689c0.362,0,0.656-0.308,0.656-0.689V3.403h2.845c0.241,0,0.437,0.206,0.437,0.459V20.164z"/>
	<rect x="4.594" y="8.225" width="2.625" height="2.066"/>
	<rect x="4.594" y="11.668" width="2.625" height="2.067"/>
	<rect x="4.594" y="15.112" width="2.625" height="2.066"/>
	<rect x="9.188" y="15.112" width="2.625" height="2.066"/>
	<rect x="9.188" y="11.668" width="2.625" height="2.067"/>
	<rect x="9.188" y="8.225" width="2.625" height="2.066"/>
	<rect x="13.781" y="15.112" width="2.625" height="2.066"/>
	<rect x="13.781" y="11.668" width="2.625" height="2.067"/>
	<rect x="13.781" y="8.225" width="2.625" height="2.066"/>
</g>
</svg>
